---
title: 林姗.2013-宝贝子【豪记】【WAV+CUE】
date: 2023-08-19 09:32:26
categories: WAV车载音乐、镜像
tags: 华语中文
---
# 林姗.2013-宝贝子【豪记】【WAV+CUE】

PERFORMER "林姗"
TITLE "宝贝子"
FILE "CDImage.wav" WAVE
TRACK 01 AUDIO
TITLE "宝贝子"
PERFORMER "林姗"
FLAGS DCP
INDEX 01 00:00:00
TRACK 02 AUDIO
TITLE "爱的坚持"
PERFORMER "林姗&翁立友"
FLAGS DCP
INDEX 01 05:07:44
TRACK 03 AUDIO
TITLE "金线莲"
PERFORMER "林姗&李明洋"
FLAGS DCP
INDEX 01 08:47:22
TRACK 04 AUDIO
TITLE "别让我哭"
PERFORMER "林姗&罗时丰"
FLAGS DCP
INDEX 01 13:28:20
TRACK 05 AUDIO
TITLE "男人的泪女人的爱"
PERFORMER "林姗&江志丰"
FLAGS DCP
INDEX 01 17:59:22
TRACK 06 AUDIO
TITLE "请你紧放手"
PERFORMER "林姗"
FLAGS DCP
INDEX 01 22:05:12
TRACK 07 AUDIO
TITLE "望君"
PERFORMER "林姗"
FLAGS DCP
INDEX 01 25:37:03
TRACK 08 AUDIO
TITLE "过了时"
PERFORMER "林姗"
FLAGS DCP
INDEX 01 29:55:23
TRACK 09 AUDIO
TITLE "无缘恋梦"
PERFORMER "林姗"
FLAGS DCP
INDEX 01 34:14:28
TRACK 10 AUDIO
TITLE "等春天"
PERFORMER "林姗"
FLAGS DCP
INDEX 01 39:07:71
林姗.2013 - 宝贝子【豪记】【WAV+CUE】.rar: https://url27.ctfile.com/f/9388027-921271221-c081e1?p=559675
(访问密码: 559675)
林珊CD: https://url27.ctfile.com/d/9388027-43965627-3dbaef?p=559675
(访问密码: 559675)
原文：[链接](https://blog.sina.com.cn/s/blog_1647c7e760103136l.html)